<svg width="29" height="28" viewBox="0 0 29 28" fill="none" xmlns="http://www.w3.org/2000/svg">
<path d="M14.0613 8.42567C13.0393 8.42567 11.4573 7.26367 9.79134 7.30567C7.59334 7.33367 5.57734 8.57967 4.44334 10.5537C2.16134 14.5157 3.85534 20.3677 6.08134 23.5877C7.17334 25.1557 8.46134 26.9197 10.1693 26.8637C11.8073 26.7937 12.4233 25.7997 14.4113 25.7997C16.3853 25.7997 16.9453 26.8637 18.6813 26.8217C20.4453 26.7937 21.5653 25.2257 22.6433 23.6437C23.8893 21.8237 24.4073 20.0597 24.4353 19.9617C24.3933 19.9477 21.0053 18.6457 20.9633 14.7257C20.9353 11.4497 23.6373 9.88167 23.7633 9.81167C22.2233 7.55767 19.8573 7.30567 19.0313 7.24967C16.8753 7.08167 15.0693 8.42567 14.0613 8.42567ZM17.7013 5.12167C18.6113 4.02967 19.2133 2.50367 19.0453 0.991669C17.7433 1.04767 16.1753 1.85967 15.2373 2.95167C14.3973 3.91767 13.6693 5.47167 13.8653 6.95567C15.3073 7.06767 16.7913 6.21367 17.7013 5.12167Z" fill="black"/>
</svg>
