<svg width="36" height="36" viewBox="0 0 36 36" fill="none" xmlns="http://www.w3.org/2000/svg">
<circle cx="18" cy="18" r="18" fill="#F7F7F7"/>
<path d="M19.3 23.3L14.7 18.7C14.6 18.6 14.5293 18.4917 14.488 18.375C14.446 18.2583 14.425 18.1333 14.425 18C14.425 17.8667 14.446 17.7417 14.488 17.625C14.5293 17.5083 14.6 17.4 14.7 17.3L19.3 12.7C19.4833 12.5167 19.7167 12.425 20 12.425C20.2833 12.425 20.5167 12.5167 20.7 12.7C20.8833 12.8833 20.975 13.1167 20.975 13.4C20.975 13.6833 20.8833 13.9167 20.7 14.1L16.8 18L20.7 21.9C20.8833 22.0833 20.975 22.3167 20.975 22.6C20.975 22.8833 20.8833 23.1166 20.7 23.3C20.5167 23.4833 20.2833 23.575 20 23.575C19.7167 23.575 19.4833 23.4833 19.3 23.3Z" fill="black"/>
</svg>
