<svg width="32" height="32" viewBox="0 0 32 32" fill="none" xmlns="http://www.w3.org/2000/svg">
<g filter="url(#filter0_b_236_1125)">
<rect width="32" height="32" rx="16" fill="#5A5A5A" fill-opacity="0.6"/>
<path d="M10.7249 23.3975C10.6308 23.4605 10.5213 23.4967 10.4082 23.5023C10.2951 23.5078 10.1826 23.4826 10.0827 23.4292C9.98286 23.3758 9.89938 23.2962 9.84121 23.1991C9.78303 23.1019 9.75235 22.9908 9.75244 22.8775V11.0125C9.75244 10.3503 10.0151 9.7152 10.4829 9.2465C10.9507 8.7778 11.5853 8.51383 12.2474 8.5125L19.7474 8.49875C20.0757 8.4981 20.401 8.56211 20.7045 8.68714C21.0081 8.81217 21.2841 8.99577 21.5167 9.22745C21.7493 9.45913 21.934 9.73436 22.0602 10.0374C22.1865 10.3405 22.2518 10.6654 22.2524 10.9938V22.8763C22.2525 22.9895 22.2219 23.1007 22.1637 23.1978C22.1055 23.295 22.022 23.3745 21.9221 23.4279C21.8223 23.4813 21.7098 23.5066 21.5967 23.501C21.4835 23.4954 21.3741 23.4592 21.2799 23.3963L16.0024 19.8713L10.7249 23.3963V23.3975ZM21.0024 11L20.9937 10.8525C20.9575 10.5482 20.8109 10.2679 20.5816 10.0646C20.3523 9.86135 20.0563 9.7494 19.7499 9.75L12.2499 9.7625C11.9189 9.76317 11.6016 9.89515 11.3677 10.1295C11.1338 10.3639 11.0024 10.6814 11.0024 11.0125V21.7088L15.6549 18.6013C15.7578 18.5325 15.8787 18.4957 16.0024 18.4957C16.1262 18.4957 16.2471 18.5325 16.3499 18.6013L21.0024 21.7088V11Z" fill="black"/>
</g>
<defs>
<filter id="filter0_b_236_1125" x="-20" y="-20" width="72" height="72" filterUnits="userSpaceOnUse" color-interpolation-filters="sRGB">
<feFlood flood-opacity="0" result="BackgroundImageFix"/>
<feGaussianBlur in="BackgroundImageFix" stdDeviation="10"/>
<feComposite in2="SourceAlpha" operator="in" result="effect1_backgroundBlur_236_1125"/>
<feBlend mode="normal" in="SourceGraphic" in2="effect1_backgroundBlur_236_1125" result="shape"/>
</filter>
</defs>
</svg>
