<svg width="25" height="24" viewBox="0 0 25 24" fill="none" xmlns="http://www.w3.org/2000/svg">
<path d="M5.83668 20.877C5.72372 20.9526 5.59235 20.9961 5.45662 21.0027C5.32088 21.0094 5.18588 20.9791 5.06603 20.915C4.94619 20.851 4.84601 20.7555 4.77619 20.6389C4.70638 20.5223 4.66957 20.3889 4.66968 20.253V6.01504C4.66968 5.22043 4.98492 4.45828 5.54623 3.89584C6.10755 3.3334 6.86907 3.01663 7.66368 3.01504L16.6637 2.99854C17.0576 2.99775 17.4479 3.07457 17.8122 3.22461C18.1765 3.37464 18.5076 3.59496 18.7868 3.87298C19.0659 4.151 19.2875 4.48127 19.439 4.84495C19.5905 5.20862 19.6689 5.59858 19.6697 5.99254V20.2515C19.6698 20.3874 19.633 20.5208 19.5632 20.6374C19.4934 20.754 19.3932 20.8495 19.2733 20.9135C19.1535 20.9776 19.0185 21.0079 18.8827 21.0012C18.747 20.9946 18.6156 20.9511 18.5027 20.8755L12.1697 16.6455L5.83668 20.8755V20.877Z" fill="black"/>
</svg>
