<svg width="14" height="16" viewBox="0 0 14 16" fill="none" xmlns="http://www.w3.org/2000/svg">
<path d="M1.72494 15.3975C1.63081 15.4605 1.52134 15.4967 1.40822 15.5023C1.29511 15.5078 1.18261 15.4826 1.08274 15.4292C0.982865 15.3758 0.899381 15.2962 0.841205 15.1991C0.78303 15.1019 0.752349 14.9908 0.752442 14.8775V3.0125C0.75244 2.35033 1.01515 1.7152 1.48291 1.2465C1.95067 0.777805 2.58527 0.513828 3.24744 0.512504L10.7474 0.498754C11.0757 0.498097 11.401 0.56211 11.7045 0.68714C12.0081 0.81217 12.2841 0.995768 12.5167 1.22745C12.7493 1.45913 12.934 1.73436 13.0602 2.03743C13.1865 2.34049 13.2518 2.66545 13.2524 2.99375V14.8763C13.2525 14.9895 13.2219 15.1007 13.1637 15.1978C13.1055 15.295 13.022 15.3745 12.9221 15.4279C12.8223 15.4813 12.7098 15.5066 12.5967 15.501C12.4835 15.4954 12.3741 15.4592 12.2799 15.3963L7.00244 11.8713L1.72494 15.3963V15.3975ZM12.0024 3L11.9937 2.8525C11.9575 2.54824 11.8109 2.26785 11.5816 2.0646C11.3523 1.86135 11.0563 1.7494 10.7499 1.75L3.24994 1.7625C2.91885 1.76317 2.60155 1.89515 2.36767 2.1295C2.13379 2.36385 2.00244 2.68142 2.00244 3.0125V13.7088L6.65494 10.6013C6.75778 10.5325 6.87872 10.4957 7.00244 10.4957C7.12616 10.4957 7.2471 10.5325 7.34994 10.6013L12.0024 13.7088V3Z" fill="white"/>
</svg>
