<svg width="20" height="18" viewBox="0 0 20 18" fill="none" xmlns="http://www.w3.org/2000/svg">
<path d="M12.25 12.7501V14.6251C12.25 15.1224 12.0525 15.5993 11.7008 15.9509C11.3492 16.3025 10.8723 16.5001 10.375 16.5001H2.875C2.37772 16.5001 1.90081 16.3025 1.54917 15.9509C1.19754 15.5993 1 15.1224 1 14.6251V3.37509C1 2.87781 1.19754 2.4009 1.54917 2.04927C1.90081 1.69764 2.37772 1.50009 2.875 1.50009H10C11.0355 1.50009 12.25 2.33962 12.25 3.37509V5.25009M15.25 12.7501L19 9.00009L15.25 5.25009M6.25 9.00009H18.25" stroke="black" stroke-width="2" stroke-linecap="round" stroke-linejoin="round"/>
</svg>
