<?xml version="1.0" standalone="no"?>
<!DOCTYPE svg PUBLIC "-//W3C//DTD SVG 20010904//EN"
 "http://www.w3.org/TR/2001/REC-SVG-20010904/DTD/svg10.dtd">
<svg version="1.0" xmlns="http://www.w3.org/2000/svg"
 width="297.000000pt" height="44.000000pt" viewBox="0 0 297.000000 44.000000"
 preserveAspectRatio="xMidYMid meet">

<g transform="translate(0.000000,44.000000) scale(0.100000,-0.100000)"
fill="#000000" stroke="none">
<path d="M1208 433 l-48 -4 0 -80 0 -80 -22 15 c-50 35 -145 11 -173 -44 -19
-37 -19 -133 0 -170 29 -56 126 -79 180 -44 23 15 25 15 25 0 0 -12 10 -16 48
-16 l47 0 0 215 c0 118 -2 214 -5 213 -3 -1 -26 -3 -52 -5z m-70 -229 c44 -30
20 -106 -33 -106 -50 0 -74 65 -38 104 20 22 42 23 71 2z"/>
<path d="M88 423 l-88 -4 0 -204 0 -205 46 0 46 0 -4 78 -3 77 83 3 82 3 0 49
0 50 -79 0 c-71 0 -80 2 -86 20 -13 42 11 52 103 44 l85 -7 -6 39 c-4 22 -7
45 -7 52 0 8 -14 11 -42 10 -24 -1 -82 -4 -130 -5z"/>
<path d="M1345 423 c-19 -4 -20 -12 -20 -208 l-1 -205 53 0 53 0 0 97 c0 60 4
93 9 88 5 -6 27 -50 48 -100 22 -49 46 -91 54 -93 11 -2 26 24 52 90 55 137
57 137 57 21 l0 -103 55 0 55 0 0 209 0 208 -53 0 -54 0 -55 -116 -55 -116
-57 118 c-55 115 -56 117 -88 116 -18 -1 -42 -4 -53 -6z"/>
<path d="M2550 402 c-48 -39 -1 -94 65 -78 21 5 25 12 25 41 0 29 -5 37 -26
45 -34 13 -38 13 -64 -8z"/>
<path d="M375 290 c-47 -19 -69 -58 -73 -129 -4 -67 -3 -70 29 -105 19 -20 49
-40 67 -45 l32 -10 0 39 c0 21 -4 42 -10 45 -16 10 -12 62 6 80 15 15 18 15
36 -2 15 -13 18 -25 13 -48 -3 -16 -9 -49 -12 -72 l-5 -42 32 9 c64 18 100 71
100 145 0 91 -55 145 -145 144 -27 0 -59 -4 -70 -9z"/>
<path d="M684 281 c-57 -35 -80 -123 -50 -196 16 -36 46 -61 95 -75 l31 -9 0
44 c0 24 -4 47 -10 50 -13 8 -13 75 -1 75 6 0 12 -15 14 -32 l4 -33 1 33 c1
17 6 32 11 32 6 0 12 -15 14 -32 l4 -33 1 33 c1 17 7 32 12 32 16 0 12 -56 -5
-70 -21 -17 -20 -90 0 -90 29 0 74 30 89 58 38 75 27 151 -29 201 -31 27 -43
31 -93 31 -38 0 -67 -6 -88 -19z"/>
<path d="M1872 280 c-78 -48 -83 -189 -8 -248 42 -33 81 -37 122 -13 29 18 36
18 40 6 4 -10 20 -15 50 -15 l43 0 3 132 c2 73 2 135 1 136 -1 2 -19 8 -40 12
-29 7 -40 6 -46 -6 -7 -12 -11 -12 -30 1 -30 21 -96 19 -135 -5z m133 -85 c14
-13 25 -31 25 -40 0 -19 -44 -65 -62 -65 -54 0 -80 84 -36 114 31 22 45 20 73
-9z"/>
<path d="M2220 291 c-32 -5 -35 -9 -34 -38 0 -18 1 -80 2 -138 l2 -105 50 0
50 0 0 89 c0 96 9 115 52 109 22 -3 23 -7 26 -100 l3 -98 56 0 56 0 -7 37 c-3
21 -6 77 -6 124 0 52 -5 92 -13 102 -21 29 -80 33 -127 8 -42 -22 -42 -22 -47
-1 -6 21 -7 21 -63 11z"/>
<path d="M2753 280 c-42 -25 -63 -68 -63 -127 0 -61 26 -111 71 -135 42 -23
56 -23 102 1 29 15 37 16 37 5 0 -9 12 -14 35 -14 l35 0 0 139 0 139 -26 5
c-16 3 -28 0 -31 -9 -4 -11 -9 -11 -26 1 -30 21 -96 19 -134 -5z m125 -76 c44
-30 18 -114 -36 -114 -18 0 -62 46 -62 65 0 19 44 65 62 65 8 0 24 -7 36 -16z"/>
<path d="M2534 244 c3 -26 6 -89 6 -140 l0 -94 50 0 50 0 0 140 0 140 -56 0
-57 0 7 -46z"/>
</g>
</svg>
