<svg width="20" height="20" viewBox="0 0 20 20" fill="none" xmlns="http://www.w3.org/2000/svg">
<path d="M9 7.00006H11V5.00006H9M10 18.0001C5.59 18.0001 2 14.4101 2 10.0001C2 5.59006 5.59 2.00006 10 2.00006C14.41 2.00006 18 5.59006 18 10.0001C18 14.4101 14.41 18.0001 10 18.0001ZM10 6.10352e-05C8.68678 6.10352e-05 7.38642 0.258719 6.17317 0.761266C4.95991 1.26381 3.85752 2.00041 2.92893 2.92899C1.05357 4.80436 0 7.3479 0 10.0001C0 12.6522 1.05357 15.1958 2.92893 17.0711C3.85752 17.9997 4.95991 18.7363 6.17317 19.2389C7.38642 19.7414 8.68678 20.0001 10 20.0001C12.6522 20.0001 15.1957 18.9465 17.0711 17.0711C18.9464 15.1958 20 12.6522 20 10.0001C20 8.68684 19.7413 7.38648 19.2388 6.17323C18.7362 4.95997 17.9997 3.85758 17.0711 2.92899C16.1425 2.00041 15.0401 1.26381 13.8268 0.761266C12.6136 0.258719 11.3132 6.10352e-05 10 6.10352e-05ZM9 15.0001H11V9.00006H9V15.0001Z" fill="black"/>
</svg>
