<svg width="100" height="100" viewBox="0 0 100 100" fill="none" xmlns="http://www.w3.org/2000/svg">
<rect width="100" height="100" rx="50" fill="#722F37"/>
<path d="M14.6086 56V51.5625H19.1945V49.6953H14.6086V46.6719H19.632V44.7266H12.2492V56H14.6086ZM24.0365 56.1797C26.5677 56.1797 28.1849 54.5625 28.1849 51.8047C28.1849 49.0859 26.5443 47.4453 24.0365 47.4453C21.5287 47.4453 19.8881 49.0938 19.8881 51.8047C19.8881 54.5547 21.5052 56.1797 24.0365 56.1797ZM24.0365 54.4375C22.9115 54.4375 22.2006 53.4922 22.2006 51.8125C22.2006 50.1484 22.9271 49.1875 24.0365 49.1875C25.1459 49.1875 25.8646 50.1484 25.8646 51.8125C25.8646 53.4922 25.1537 54.4375 24.0365 54.4375ZM32.8004 56.1797C35.3316 56.1797 36.9488 54.5625 36.9488 51.8047C36.9488 49.0859 35.3082 47.4453 32.8004 47.4453C30.2926 47.4453 28.6519 49.0938 28.6519 51.8047C28.6519 54.5547 30.2691 56.1797 32.8004 56.1797ZM32.8004 54.4375C31.6754 54.4375 30.9644 53.4922 30.9644 51.8125C30.9644 50.1484 31.691 49.1875 32.8004 49.1875C33.9097 49.1875 34.6285 50.1484 34.6285 51.8125C34.6285 53.4922 33.9176 54.4375 32.8004 54.4375ZM40.8299 56.1328C42.0643 56.1328 43.033 55.4844 43.4393 54.5625H43.4783V56H45.7283V44.7266H43.4471V49.0625H43.4002C42.9939 48.1328 42.0564 47.4922 40.8455 47.4922C38.7439 47.4922 37.4158 49.1406 37.4158 51.7969C37.4158 54.4766 38.7361 56.1328 40.8299 56.1328ZM41.6033 49.3203C42.7361 49.3203 43.4627 50.2891 43.4627 51.8125C43.4627 53.3438 42.7361 54.2969 41.6033 54.2969C40.4549 54.2969 39.7518 53.3516 39.7518 51.8125C39.7518 50.2812 40.4549 49.3203 41.6033 49.3203ZM58.9766 56V44.7266H56.2422L53.0391 52.7188H52.9766L49.7734 44.7266H47.0391V56H49.1406V48.3906H49.2031L52.2656 55.8906H53.75L56.8125 48.3906H56.875V56H58.9766ZM63.2951 54.4844C62.5217 54.4844 62.0061 54.0938 62.0061 53.4688C62.0061 52.875 62.4904 52.4922 63.342 52.4297L65.1076 52.3203V52.9297C65.1076 53.8359 64.2873 54.4844 63.2951 54.4844ZM62.5451 56.1328C63.592 56.1328 64.6311 55.6094 65.0998 54.7188H65.1467V56H67.3498V50.2422C67.3498 48.5547 65.9514 47.4453 63.8029 47.4453C61.5842 47.4453 60.2014 48.5625 60.1154 50.1875H62.2014C62.3107 49.5703 62.8498 49.1484 63.7014 49.1484C64.5607 49.1484 65.1076 49.6016 65.1076 50.3828V50.9375L62.9982 51.0625C60.9123 51.1875 59.7404 52.0703 59.7404 53.5938C59.7404 55.1016 60.9514 56.1328 62.5451 56.1328ZM68.4184 56H70.6996V51.1953C70.6996 50.1094 71.3481 49.3594 72.3715 49.3594C73.3949 49.3594 73.9106 49.9844 73.9106 51.0781V56H76.1918V50.6016C76.1918 48.6406 75.1449 47.4688 73.2856 47.4688C71.9965 47.4688 71.1137 48.0781 70.6684 49.1172H70.6215V47.625H68.4184V56ZM77.2682 56H79.5494V47.625H77.2682V56ZM78.4088 46.7031C79.0963 46.7031 79.6276 46.1797 79.6276 45.5234C79.6276 44.8594 79.0963 44.3438 78.4088 44.3438C77.7213 44.3438 77.1901 44.8594 77.1901 45.5234C77.1901 46.1797 77.7213 46.7031 78.4088 46.7031ZM83.8992 54.4844C83.1258 54.4844 82.6102 54.0938 82.6102 53.4688C82.6102 52.875 83.0946 52.4922 83.9461 52.4297L85.7117 52.3203V52.9297C85.7117 53.8359 84.8914 54.4844 83.8992 54.4844ZM83.1492 56.1328C84.1961 56.1328 85.2352 55.6094 85.7039 54.7188H85.7508V56H87.9539V50.2422C87.9539 48.5547 86.5555 47.4453 84.4071 47.4453C82.1883 47.4453 80.8055 48.5625 80.7196 50.1875H82.8055C82.9149 49.5703 83.4539 49.1484 84.3055 49.1484C85.1649 49.1484 85.7117 49.6016 85.7117 50.3828V50.9375L83.6024 51.0625C81.5164 51.1875 80.3446 52.0703 80.3446 53.5938C80.3446 55.1016 81.5555 56.1328 83.1492 56.1328Z" fill="white"/>
</svg>
