<svg width="24" height="24" viewBox="0 0 24 24" fill="none" xmlns="http://www.w3.org/2000/svg">
<path d="M7 12H11V8H12V12H16V13H12V17H11V13H7V12ZM11.5 3C14.0196 3 16.4359 4.00089 18.2175 5.78249C19.9991 7.56408 21 9.98044 21 12.5C21 15.0196 19.9991 17.4359 18.2175 19.2175C16.4359 20.9991 14.0196 22 11.5 22C8.98044 22 6.56408 20.9991 4.78249 19.2175C3.00089 17.4359 2 15.0196 2 12.5C2 9.98044 3.00089 7.56408 4.78249 5.78249C6.56408 4.00089 8.98044 3 11.5 3ZM11.5 4C9.24566 4 7.08365 4.89553 5.48959 6.48959C3.89553 8.08365 3 10.2457 3 12.5C3 14.7543 3.89553 16.9163 5.48959 18.5104C7.08365 20.1045 9.24566 21 11.5 21C12.6162 21 13.7215 20.7801 14.7528 20.353C15.7841 19.9258 16.7211 19.2997 17.5104 18.5104C18.2997 17.7211 18.9258 16.7841 19.353 15.7528C19.7801 14.7215 20 13.6162 20 12.5C20 10.2457 19.1045 8.08365 17.5104 6.48959C15.9163 4.89553 13.7543 4 11.5 4Z" fill="#716363"/>
</svg>
