<svg width="25" height="24" viewBox="0 0 25 24" fill="none" xmlns="http://www.w3.org/2000/svg">
<path d="M12.8334 10.9C12.2234 10.9 11.7334 11.39 11.7334 12C11.7334 12.61 12.2234 13.1 12.8334 13.1C13.4434 13.1 13.9334 12.61 13.9334 12C13.9334 11.39 13.4434 10.9 12.8334 10.9ZM12.8334 2C7.31337 2 2.83337 6.48 2.83337 12C2.83337 17.52 7.31337 22 12.8334 22C18.3534 22 22.8334 17.52 22.8334 12C22.8334 6.48 18.3534 2 12.8334 2ZM15.0234 14.19L6.83337 18L10.6434 9.81L18.8334 6L15.0234 14.19Z" fill="black"/>
</svg>
