<svg width="17" height="17" viewBox="0 0 17 17" fill="none" xmlns="http://www.w3.org/2000/svg">
<path fill-rule="evenodd" clip-rule="evenodd" d="M7.74997 0.666748C6.62046 0.666844 5.50735 0.937052 4.50351 1.45483C3.49968 1.9726 2.63421 2.72293 1.97933 3.64321C1.32445 4.56349 0.899142 5.62704 0.738891 6.74512C0.578639 7.8632 0.688092 9.00339 1.05812 10.0706C1.42814 11.1377 2.04801 12.101 2.866 12.8799C3.68399 13.6587 4.67639 14.2307 5.7604 14.5481C6.8444 14.8654 7.98859 14.919 9.09748 14.7042C10.2064 14.4894 11.2478 14.0126 12.135 13.3134L15.1783 16.3567C15.3355 16.5085 15.546 16.5925 15.7645 16.5906C15.983 16.5887 16.192 16.5011 16.3465 16.3466C16.501 16.1921 16.5886 15.9831 16.5905 15.7646C16.5924 15.5461 16.5084 15.3356 16.3566 15.1784L13.3133 12.1351C14.1366 11.0906 14.6493 9.83542 14.7926 8.51319C14.9358 7.19096 14.704 5.8551 14.1235 4.65849C13.543 3.46189 12.6374 2.45288 11.5102 1.74694C10.3831 1.041 9.07994 0.666659 7.74997 0.666748ZM2.3333 7.75008C2.3333 6.31349 2.90398 4.93574 3.91981 3.91992C4.93563 2.9041 6.31338 2.33341 7.74997 2.33341C9.18656 2.33341 10.5643 2.9041 11.5801 3.91992C12.596 4.93574 13.1666 6.31349 13.1666 7.75008C13.1666 9.18667 12.596 10.5644 11.5801 11.5802C10.5643 12.5961 9.18656 13.1667 7.74997 13.1667C6.31338 13.1667 4.93563 12.5961 3.91981 11.5802C2.90398 10.5644 2.3333 9.18667 2.3333 7.75008Z" fill="#717171"/>
</svg>
