<svg width="32" height="32" viewBox="0 0 32 32" fill="none" xmlns="http://www.w3.org/2000/svg">
<g filter="url(#filter0_b_236_1127)">
<rect width="32" height="32" rx="16" fill="#5A5A5A" fill-opacity="0.6"/>
<path d="M19.7502 18.5C19.3333 18.4999 18.9205 18.5834 18.5365 18.7456C18.1524 18.9079 17.8048 19.1455 17.5143 19.4445L13.9127 17.1297C14.196 16.4032 14.196 15.5968 13.9127 14.8703L17.5143 12.5555C18.0552 13.1096 18.7827 13.4432 19.5556 13.4914C20.3286 13.5397 21.0919 13.2992 21.6976 12.8167C22.3033 12.3341 22.7083 11.6438 22.834 10.8797C22.9596 10.1155 22.7971 9.3319 22.3779 8.68076C21.9586 8.02962 21.3125 7.55735 20.5649 7.35551C19.8172 7.15366 19.0212 7.23663 18.3312 7.58832C17.6413 7.94002 17.1065 8.53538 16.8305 9.25898C16.5546 9.98258 16.5571 10.7829 16.8377 11.5047L13.2361 13.8195C12.8024 13.3743 12.2458 13.0685 11.6374 12.9412C11.029 12.8139 10.3965 12.871 9.82068 13.1051C9.24487 13.3392 8.75196 13.7396 8.40494 14.2553C8.05792 14.771 7.87256 15.3784 7.87256 16C7.87256 16.6216 8.05792 17.229 8.40494 17.7447C8.75196 18.2604 9.24487 18.6608 9.82068 18.8949C10.3965 19.129 11.029 19.1861 11.6374 19.0588C12.2458 18.9315 12.8024 18.6257 13.2361 18.1805L16.8377 20.4953C16.5964 21.1176 16.5607 21.8008 16.7358 22.4448C16.9109 23.0889 17.2876 23.6599 17.8107 24.0744C18.3339 24.4889 18.976 24.725 19.643 24.7481C20.31 24.7713 20.9669 24.5802 21.5175 24.203C22.0681 23.8258 22.4835 23.2822 22.7028 22.6519C22.9221 22.0215 22.9339 21.3375 22.7363 20.7C22.5387 20.0625 22.1423 19.5049 21.6049 19.1091C21.0676 18.7132 20.4176 18.4998 19.7502 18.5ZM19.7502 8.5C20.121 8.5 20.4835 8.60997 20.7919 8.81599C21.1002 9.02202 21.3405 9.31486 21.4825 9.65747C21.6244 10.0001 21.6615 10.3771 21.5892 10.7408C21.5168 11.1045 21.3382 11.4386 21.076 11.7008C20.8138 11.963 20.4797 12.1416 20.116 12.214C19.7523 12.2863 19.3753 12.2492 19.0327 12.1073C18.69 11.9654 18.3972 11.725 18.1912 11.4167C17.9852 11.1084 17.8752 10.7458 17.8752 10.375C17.8752 9.87772 18.0727 9.40081 18.4244 9.04917C18.776 8.69754 19.2529 8.5 19.7502 8.5ZM11.0002 17.875C10.6293 17.875 10.2668 17.765 9.95849 17.559C9.65015 17.353 9.40983 17.0601 9.26791 16.7175C9.126 16.3749 9.08887 15.9979 9.16122 15.6342C9.23356 15.2705 9.41214 14.9364 9.67436 14.6742C9.93659 14.412 10.2707 14.2334 10.6344 14.161C10.9981 14.0887 11.3751 14.1258 11.7177 14.2677C12.0603 14.4096 12.3532 14.65 12.5592 14.9583C12.7652 15.2666 12.8752 15.6292 12.8752 16C12.8752 16.4973 12.6776 16.9742 12.326 17.3258C11.9744 17.6775 11.4975 17.875 11.0002 17.875ZM19.7502 23.5C19.3793 23.5 19.0168 23.39 18.7085 23.184C18.4002 22.978 18.1598 22.6851 18.0179 22.3425C17.876 21.9999 17.8389 21.6229 17.9112 21.2592C17.9836 20.8955 18.1621 20.5614 18.4244 20.2992C18.6866 20.0369 19.0207 19.8584 19.3844 19.786C19.7481 19.7137 20.1251 19.7508 20.4677 19.8927C20.8103 20.0346 21.1032 20.275 21.3092 20.5833C21.5152 20.8916 21.6252 21.2542 21.6252 21.625C21.6252 22.1223 21.4276 22.5992 21.076 22.9508C20.7244 23.3025 20.2475 23.5 19.7502 23.5Z" fill="black"/>
</g>
<defs>
<filter id="filter0_b_236_1127" x="-20" y="-20" width="72" height="72" filterUnits="userSpaceOnUse" color-interpolation-filters="sRGB">
<feFlood flood-opacity="0" result="BackgroundImageFix"/>
<feGaussianBlur in="BackgroundImageFix" stdDeviation="10"/>
<feComposite in2="SourceAlpha" operator="in" result="effect1_backgroundBlur_236_1127"/>
<feBlend mode="normal" in="SourceGraphic" in2="effect1_backgroundBlur_236_1127" result="shape"/>
</filter>
</defs>
</svg>
